<?xml version="1.0" encoding="utf-8" standalone="no"?>
<!DOCTYPE svg PUBLIC "-//W3C//DTD SVG 1.1//EN"
  "http://www.w3.org/Graphics/SVG/1.1/DTD/svg11.dtd">
<!-- Created with matplotlib (http://matplotlib.org/) -->
<svg height="288pt" version="1.1" viewBox="0 0 288 288" width="288pt" xmlns="http://www.w3.org/2000/svg" xmlns:xlink="http://www.w3.org/1999/xlink">
 <defs>
  <style type="text/css">
*{stroke-linecap:butt;stroke-linejoin:round;stroke-miterlimit:100000;}
  </style>
 </defs>
 <g id="figure_1">
  <g id="patch_1">
   <path d="M 0 288 
L 288 288 
L 288 0 
L 0 0 
z
" style="fill:#ffffff;"/>
  </g>
  <g id="axes_1">
   <g id="PathCollection_1">
    <defs>
     <path d="M 0 2.236068 
C 0.593012 2.236068 1.161816 2.000462 1.581139 1.581139 
C 2.000462 1.161816 2.236068 0.593012 2.236068 0 
C 2.236068 -0.593012 2.000462 -1.161816 1.581139 -1.581139 
C 1.161816 -2.000462 0.593012 -2.236068 0 -2.236068 
C -0.593012 -2.236068 -1.161816 -2.000462 -1.581139 -1.581139 
C -2.000462 -1.161816 -2.236068 -0.593012 -2.236068 0 
C -2.236068 0.593012 -2.000462 1.161816 -1.581139 1.581139 
C -1.161816 2.000462 -0.593012 2.236068 0 2.236068 
z
" id="C0_0_e2d73f04b7"/>
    </defs>
    <g clip-path="url(#p7a8f69b32a)">
     <use style="fill:none;stroke:#ff0000;" x="242.993495078" xlink:href="#C0_0_e2d73f04b7" y="172.756236344"/>
    </g>
    <g clip-path="url(#p7a8f69b32a)">
     <use style="fill:none;stroke:#ff0000;" x="206.717209345" xlink:href="#C0_0_e2d73f04b7" y="171.135219709"/>
    </g>
    <g clip-path="url(#p7a8f69b32a)">
     <use style="fill:none;stroke:#ff0000;" x="190.925900284" xlink:href="#C0_0_e2d73f04b7" y="184.170042507"/>
    </g>
    <g clip-path="url(#p7a8f69b32a)">
     <use style="fill:none;stroke:#ff0000;" x="215.438235379" xlink:href="#C0_0_e2d73f04b7" y="172.076669504"/>
    </g>
    <g clip-path="url(#p7a8f69b32a)">
     <use style="fill:none;stroke:#ff0000;" x="233.739175462" xlink:href="#C0_0_e2d73f04b7" y="200.640931764"/>
    </g>
    <g clip-path="url(#p7a8f69b32a)">
     <use style="fill:none;stroke:#ff0000;" x="228.460105722" xlink:href="#C0_0_e2d73f04b7" y="158.416009912"/>
    </g>
    <g clip-path="url(#p7a8f69b32a)">
     <use style="fill:none;stroke:#ff0000;" x="242.691780552" xlink:href="#C0_0_e2d73f04b7" y="193.013432035"/>
    </g>
    <g clip-path="url(#p7a8f69b32a)">
     <use style="fill:none;stroke:#ff0000;" x="244.663536145" xlink:href="#C0_0_e2d73f04b7" y="201.559837427"/>
    </g>
    <g clip-path="url(#p7a8f69b32a)">
     <use style="fill:none;stroke:#ff0000;" x="223.600845713" xlink:href="#C0_0_e2d73f04b7" y="163.74488013"/>
    </g>
    <g clip-path="url(#p7a8f69b32a)">
     <use style="fill:none;stroke:#ff0000;" x="241.520217104" xlink:href="#C0_0_e2d73f04b7" y="181.13756237"/>
    </g>
    <g clip-path="url(#p7a8f69b32a)">
     <use style="fill:none;stroke:#ff0000;" x="254.864081812" xlink:href="#C0_0_e2d73f04b7" y="168.19755746"/>
    </g>
    <g clip-path="url(#p7a8f69b32a)">
     <use style="fill:none;stroke:#ff0000;" x="235.567455516" xlink:href="#C0_0_e2d73f04b7" y="149.570765319"/>
    </g>
    <g clip-path="url(#p7a8f69b32a)">
     <use style="fill:none;stroke:#ff0000;" x="209.357443036" xlink:href="#C0_0_e2d73f04b7" y="172.014508243"/>
    </g>
    <g clip-path="url(#p7a8f69b32a)">
     <use style="fill:none;stroke:#ff0000;" x="194.347654969" xlink:href="#C0_0_e2d73f04b7" y="170.714585825"/>
    </g>
    <g clip-path="url(#p7a8f69b32a)">
     <use style="fill:none;stroke:#ff0000;" x="207.233812128" xlink:href="#C0_0_e2d73f04b7" y="168.724389574"/>
    </g>
    <g clip-path="url(#p7a8f69b32a)">
     <use style="fill:none;stroke:#ff0000;" x="215.505069399" xlink:href="#C0_0_e2d73f04b7" y="148.148814707"/>
    </g>
    <g clip-path="url(#p7a8f69b32a)">
     <use style="fill:none;stroke:#ff0000;" x="224.77825497" xlink:href="#C0_0_e2d73f04b7" y="146.394976122"/>
    </g>
    <g clip-path="url(#p7a8f69b32a)">
     <use style="fill:none;stroke:#ff0000;" x="197.298625734" xlink:href="#C0_0_e2d73f04b7" y="162.255064475"/>
    </g>
    <g clip-path="url(#p7a8f69b32a)">
     <use style="fill:none;stroke:#ff0000;" x="231.782671386" xlink:href="#C0_0_e2d73f04b7" y="184.042214352"/>
    </g>
    <g clip-path="url(#p7a8f69b32a)">
     <use style="fill:none;stroke:#ff0000;" x="208.435252992" xlink:href="#C0_0_e2d73f04b7" y="181.509341384"/>
    </g>
    <g clip-path="url(#p7a8f69b32a)">
     <use style="fill:none;stroke:#ff0000;" x="193.536472707" xlink:href="#C0_0_e2d73f04b7" y="165.110697151"/>
    </g>
    <g clip-path="url(#p7a8f69b32a)">
     <use style="fill:none;stroke:#ff0000;" x="191.13801462" xlink:href="#C0_0_e2d73f04b7" y="158.561530238"/>
    </g>
    <g clip-path="url(#p7a8f69b32a)">
     <use style="fill:none;stroke:#ff0000;" x="199.812896433" xlink:href="#C0_0_e2d73f04b7" y="175.918805747"/>
    </g>
    <g clip-path="url(#p7a8f69b32a)">
     <use style="fill:none;stroke:#ff0000;" x="201.494100911" xlink:href="#C0_0_e2d73f04b7" y="173.382190976"/>
    </g>
    <g clip-path="url(#p7a8f69b32a)">
     <use style="fill:none;stroke:#ff0000;" x="176.376614401" xlink:href="#C0_0_e2d73f04b7" y="139.963058629"/>
    </g>
   </g>
   <g id="PathCollection_2">
    <defs>
     <path d="M 0 2.236068 
C 0.593012 2.236068 1.161816 2.000462 1.581139 1.581139 
C 2.000462 1.161816 2.236068 0.593012 2.236068 0 
C 2.236068 -0.593012 2.000462 -1.161816 1.581139 -1.581139 
C 1.161816 -2.000462 0.593012 -2.236068 0 -2.236068 
C -0.593012 -2.236068 -1.161816 -2.000462 -1.581139 -1.581139 
C -2.000462 -1.161816 -2.236068 -0.593012 -2.236068 0 
C -2.236068 0.593012 -2.000462 1.161816 -1.581139 1.581139 
C -1.161816 2.000462 -0.593012 2.236068 0 2.236068 
z
" id="C1_0_03d79c7597"/>
    </defs>
    <g clip-path="url(#p7a8f69b32a)">
     <use style="fill:none;stroke:#0000ff;" x="216.313744249" xlink:href="#C1_0_03d79c7597" y="154.102157998"/>
    </g>
    <g clip-path="url(#p7a8f69b32a)">
     <use style="fill:none;stroke:#0000ff;" x="192.602036695" xlink:href="#C1_0_03d79c7597" y="149.805697961"/>
    </g>
    <g clip-path="url(#p7a8f69b32a)">
     <use style="fill:none;stroke:#0000ff;" x="178.913667824" xlink:href="#C1_0_03d79c7597" y="163.75365908"/>
    </g>
    <g clip-path="url(#p7a8f69b32a)">
     <use style="fill:none;stroke:#0000ff;" x="199.837705231" xlink:href="#C1_0_03d79c7597" y="152.576465566"/>
    </g>
    <g clip-path="url(#p7a8f69b32a)">
     <use style="fill:none;stroke:#0000ff;" x="207.709240515" xlink:href="#C1_0_03d79c7597" y="176.863810608"/>
    </g>
    <g clip-path="url(#p7a8f69b32a)">
     <use style="fill:none;stroke:#0000ff;" x="199.242580264" xlink:href="#C1_0_03d79c7597" y="135.747485976"/>
    </g>
    <g clip-path="url(#p7a8f69b32a)">
     <use style="fill:none;stroke:#0000ff;" x="205.893440607" xlink:href="#C1_0_03d79c7597" y="163.630773929"/>
    </g>
    <g clip-path="url(#p7a8f69b32a)">
     <use style="fill:none;stroke:#0000ff;" x="211.729060514" xlink:href="#C1_0_03d79c7597" y="179.86891687"/>
    </g>
    <g clip-path="url(#p7a8f69b32a)">
     <use style="fill:none;stroke:#0000ff;" x="201.313358176" xlink:href="#C1_0_03d79c7597" y="151.555179606"/>
    </g>
    <g clip-path="url(#p7a8f69b32a)">
     <use style="fill:none;stroke:#0000ff;" x="209.22842887" xlink:href="#C1_0_03d79c7597" y="165.328817898"/>
    </g>
    <g clip-path="url(#p7a8f69b32a)">
     <use style="fill:none;stroke:#0000ff;" x="203.871293976" xlink:href="#C1_0_03d79c7597" y="150.426746137"/>
    </g>
    <g clip-path="url(#p7a8f69b32a)">
     <use style="fill:none;stroke:#0000ff;" x="205.790437838" xlink:href="#C1_0_03d79c7597" y="140.151966123"/>
    </g>
    <g clip-path="url(#p7a8f69b32a)">
     <use style="fill:none;stroke:#0000ff;" x="202.2434544" xlink:href="#C1_0_03d79c7597" y="159.044920702"/>
    </g>
    <g clip-path="url(#p7a8f69b32a)">
     <use style="fill:none;stroke:#0000ff;" x="182.733164721" xlink:href="#C1_0_03d79c7597" y="159.90893768"/>
    </g>
    <g clip-path="url(#p7a8f69b32a)">
     <use style="fill:none;stroke:#0000ff;" x="197.437195375" xlink:href="#C1_0_03d79c7597" y="160.230123029"/>
    </g>
    <g clip-path="url(#p7a8f69b32a)">
     <use style="fill:none;stroke:#0000ff;" x="190.562815898" xlink:href="#C1_0_03d79c7597" y="139.521319462"/>
    </g>
    <g clip-path="url(#p7a8f69b32a)">
     <use style="fill:none;stroke:#0000ff;" x="200.439655432" xlink:href="#C1_0_03d79c7597" y="138.363811929"/>
    </g>
    <g clip-path="url(#p7a8f69b32a)">
     <use style="fill:none;stroke:#0000ff;" x="189.521985016" xlink:href="#C1_0_03d79c7597" y="151.671116319"/>
    </g>
    <g clip-path="url(#p7a8f69b32a)">
     <use style="fill:none;stroke:#0000ff;" x="216.398606607" xlink:href="#C1_0_03d79c7597" y="166.973060584"/>
    </g>
    <g clip-path="url(#p7a8f69b32a)">
     <use style="fill:none;stroke:#0000ff;" x="191.487443717" xlink:href="#C1_0_03d79c7597" y="162.310425231"/>
    </g>
    <g clip-path="url(#p7a8f69b32a)">
     <use style="fill:none;stroke:#0000ff;" x="176.065637304" xlink:href="#C1_0_03d79c7597" y="144.697943683"/>
    </g>
    <g clip-path="url(#p7a8f69b32a)">
     <use style="fill:none;stroke:#0000ff;" x="180.822312253" xlink:href="#C1_0_03d79c7597" y="149.978318193"/>
    </g>
    <g clip-path="url(#p7a8f69b32a)">
     <use style="fill:none;stroke:#0000ff;" x="192.986670536" xlink:href="#C1_0_03d79c7597" y="170.060806033"/>
    </g>
    <g clip-path="url(#p7a8f69b32a)">
     <use style="fill:none;stroke:#0000ff;" x="194.531161607" xlink:href="#C1_0_03d79c7597" y="167.472134423"/>
    </g>
    <g clip-path="url(#p7a8f69b32a)">
     <use style="fill:none;stroke:#0000ff;" x="170.085088451" xlink:href="#C1_0_03d79c7597" y="134.811181043"/>
    </g>
   </g>
   <g id="line2d_1">
    <path clip-path="url(#p7a8f69b32a)" d="M 156.989158 24.933673 
L 162.86146 25.087256 
L 168.717666 25.547585 
L 174.541725 26.313396 
L 180.317673 27.382592 
L 186.02968 28.752241 
L 191.662089 30.41859 
L 197.199461 32.377071 
L 202.62662 34.622316 
L 207.92869 37.148172 
L 213.091138 39.947714 
L 218.099815 43.01327 
L 222.940991 46.336437 
L 227.601398 49.908107 
L 232.068262 53.718489 
L 236.329339 57.757141 
L 240.372951 62.012991 
L 244.188013 66.474376 
L 247.764069 71.129066 
L 251.091317 75.964304 
L 254.160638 80.966837 
L 256.963619 86.122952 
L 259.492576 91.418519 
L 261.740579 96.83902 
L 263.701466 102.369601 
L 265.369861 107.9951 
L 266.741193 113.700101 
L 267.811701 119.468964 
L 268.578453 125.285879 
L 269.039347 131.134902 
L 269.193118 137 
L 269.039347 142.865098 
L 268.578453 148.714121 
L 267.811701 154.531036 
L 266.741193 160.299899 
L 265.369861 166.0049 
L 263.701466 171.630399 
L 261.740579 177.16098 
L 259.492576 182.581481 
L 256.963619 187.877048 
L 254.160638 193.033163 
L 251.091317 198.035696 
L 247.764069 202.870934 
L 244.188013 207.525624 
L 240.372951 211.987009 
L 236.329339 216.242859 
L 232.068262 220.281511 
L 227.601398 224.091893 
L 222.940991 227.663563 
L 218.099815 230.98673 
L 213.091138 234.052286 
L 207.92869 236.851828 
L 202.62662 239.377684 
L 197.199461 241.622929 
L 191.662089 243.58141 
L 186.02968 245.247759 
L 180.317673 246.617408 
L 174.541725 247.686604 
L 168.717666 248.452415 
L 162.86146 248.912744 
L 156.989158 249.066327 
L 151.116857 248.912744 
L 145.260651 248.452415 
L 139.436592 247.686604 
L 133.660643 246.617408 
L 127.948636 245.247759 
L 122.316228 243.58141 
L 116.778855 241.622929 
L 111.351696 239.377684 
L 106.049626 236.851828 
L 100.887178 234.052286 
L 95.878502 230.98673 
L 91.037325 227.663563 
L 86.376918 224.091893 
L 81.910054 220.281511 
L 77.648977 216.242859 
L 73.605366 211.987009 
L 69.790304 207.525624 
L 66.214248 202.870934 
L 62.886999 198.035696 
L 59.817678 193.033163 
L 57.014698 187.877048 
L 54.48574 182.581481 
L 52.237737 177.16098 
L 50.276851 171.630399 
L 48.608455 166.0049 
L 47.237124 160.299899 
L 46.166615 154.531036 
L 45.399863 148.714121 
L 44.93897 142.865098 
L 44.785198 137 
L 44.93897 131.134902 
L 45.399863 125.285879 
L 46.166615 119.468964 
L 47.237124 113.700101 
L 48.608455 107.9951 
L 50.276851 102.369601 
L 52.237737 96.83902 
L 54.48574 91.418519 
L 57.014698 86.122952 
L 59.817678 80.966837 
L 62.886999 75.964304 
L 66.214248 71.129066 
L 69.790304 66.474376 
L 73.605366 62.012991 
L 77.648977 57.757141 
L 81.910054 53.718489 
L 86.376918 49.908107 
L 91.037325 46.336437 
L 95.878502 43.01327 
L 100.887178 39.947714 
L 106.049626 37.148172 
L 111.351696 34.622316 
L 116.778855 32.377071 
L 122.316228 30.41859 
L 127.948636 28.752241 
L 133.660643 27.382592 
L 139.436592 26.313396 
L 145.260651 25.547585 
L 151.116857 25.087256 
L 156.989158 24.933673 
L 156.989158 24.933673 
" style="fill:none;stroke:#000000;stroke-linecap:square;"/>
   </g>
   <g id="line2d_2">
    <defs>
     <path d="M -3 0 
L 3 0 
M 0 3 
L 0 -3 
" id="me761275ace" style="stroke:#000000;stroke-width:0.5;"/>
    </defs>
    <g clip-path="url(#p7a8f69b32a)">
     <use style="stroke:#000000;stroke-width:0.5;" x="156.989158163" xlink:href="#me761275ace" y="35.1273436014"/>
     <use style="stroke:#000000;stroke-width:0.5;" x="156.989158163" xlink:href="#me761275ace" y="46.0963261609"/>
     <use style="stroke:#000000;stroke-width:0.5;" x="156.989158163" xlink:href="#me761275ace" y="57.7571405675"/>
     <use style="stroke:#000000;stroke-width:0.5;" x="156.989158163" xlink:href="#me761275ace" y="70.0210409826"/>
     <use style="stroke:#000000;stroke-width:0.5;" x="156.989158163" xlink:href="#me761275ace" y="82.7946917187"/>
     <use style="stroke:#000000;stroke-width:0.5;" x="156.989158163" xlink:href="#me761275ace" y="95.980877581"/>
     <use style="stroke:#000000;stroke-width:0.5;" x="156.989158163" xlink:href="#me761275ace" y="109.479243733"/>
     <use style="stroke:#000000;stroke-width:0.5;" x="156.989158163" xlink:href="#me761275ace" y="123.187059457"/>
     <use style="stroke:#000000;stroke-width:0.5;" x="156.989158163" xlink:href="#me761275ace" y="137.0"/>
    </g>
   </g>
   <g id="line2d_3">
    <g clip-path="url(#p7a8f69b32a)">
     <use style="stroke:#000000;stroke-width:0.5;" x="258.986928888" xlink:href="#me761275ace" y="137.0"/>
     <use style="stroke:#000000;stroke-width:0.5;" x="248.004474835" xlink:href="#me761275ace" y="137.0"/>
     <use style="stroke:#000000;stroke-width:0.5;" x="236.329339265" xlink:href="#me761275ace" y="137.0"/>
     <use style="stroke:#000000;stroke-width:0.5;" x="224.05037701" xlink:href="#me761275ace" y="137.0"/>
     <use style="stroke:#000000;stroke-width:0.5;" x="211.261038387" xlink:href="#me761275ace" y="137.0"/>
     <use style="stroke:#000000;stroke-width:0.5;" x="198.058657985" xlink:href="#me761275ace" y="137.0"/>
     <use style="stroke:#000000;stroke-width:0.5;" x="184.543713891" xlink:href="#me761275ace" y="137.0"/>
     <use style="stroke:#000000;stroke-width:0.5;" x="170.819062991" xlink:href="#me761275ace" y="137.0"/>
    </g>
   </g>
   <g id="line2d_4">
    <g clip-path="url(#p7a8f69b32a)">
     <use style="stroke:#000000;stroke-width:0.5;" x="156.989158163" xlink:href="#me761275ace" y="238.872656399"/>
     <use style="stroke:#000000;stroke-width:0.5;" x="156.989158163" xlink:href="#me761275ace" y="227.903673839"/>
     <use style="stroke:#000000;stroke-width:0.5;" x="156.989158163" xlink:href="#me761275ace" y="216.242859432"/>
     <use style="stroke:#000000;stroke-width:0.5;" x="156.989158163" xlink:href="#me761275ace" y="203.978959017"/>
     <use style="stroke:#000000;stroke-width:0.5;" x="156.989158163" xlink:href="#me761275ace" y="191.205308281"/>
     <use style="stroke:#000000;stroke-width:0.5;" x="156.989158163" xlink:href="#me761275ace" y="178.019122419"/>
     <use style="stroke:#000000;stroke-width:0.5;" x="156.989158163" xlink:href="#me761275ace" y="164.520756267"/>
     <use style="stroke:#000000;stroke-width:0.5;" x="156.989158163" xlink:href="#me761275ace" y="150.812940543"/>
    </g>
   </g>
   <g id="line2d_5">
    <g clip-path="url(#p7a8f69b32a)">
     <use style="stroke:#000000;stroke-width:0.5;" x="54.991387438" xlink:href="#me761275ace" y="137.0"/>
     <use style="stroke:#000000;stroke-width:0.5;" x="65.9738414915" xlink:href="#me761275ace" y="137.0"/>
     <use style="stroke:#000000;stroke-width:0.5;" x="77.6489770613" xlink:href="#me761275ace" y="137.0"/>
     <use style="stroke:#000000;stroke-width:0.5;" x="89.9279393163" xlink:href="#me761275ace" y="137.0"/>
     <use style="stroke:#000000;stroke-width:0.5;" x="102.717277939" xlink:href="#me761275ace" y="137.0"/>
     <use style="stroke:#000000;stroke-width:0.5;" x="115.919658341" xlink:href="#me761275ace" y="137.0"/>
     <use style="stroke:#000000;stroke-width:0.5;" x="129.434602435" xlink:href="#me761275ace" y="137.0"/>
     <use style="stroke:#000000;stroke-width:0.5;" x="143.159253336" xlink:href="#me761275ace" y="137.0"/>
    </g>
   </g>
   <g id="line2d_6">
    <path clip-path="url(#p7a8f69b32a)" d="M 156.989158 24.933673 
L 156.989158 25.915891 
L 156.989158 26.906569 
L 156.989158 27.90563 
" style="fill:none;stroke:#000000;stroke-linecap:square;"/>
   </g>
   <g id="line2d_7">
    <path clip-path="url(#p7a8f69b32a)" d="M 176.473171 26.636213 
L 176.302402 27.603509 
L 176.130161 28.579135 
L 175.956463 29.563019 
" style="fill:none;stroke:#000000;stroke-linecap:square;"/>
   </g>
   <g id="line2d_8">
    <path clip-path="url(#p7a8f69b32a)" d="M 195.365173 31.6921 
L 195.028822 32.615083 
L 194.689574 33.546015 
L 194.347455 34.484826 
" style="fill:none;stroke:#000000;stroke-linecap:square;"/>
   </g>
   <g id="line2d_9">
    <path clip-path="url(#p7a8f69b32a)" d="M 213.091138 39.947714 
L 212.599426 40.79834 
L 212.103479 41.656292 
L 211.603335 42.521504 
" style="fill:none;stroke:#000000;stroke-linecap:square;"/>
   </g>
   <g id="line2d_10">
    <path clip-path="url(#p7a8f69b32a)" d="M 229.112474 51.152213 
L 228.480341 51.904636 
L 227.842763 52.663539 
L 227.19979 53.428864 
" style="fill:none;stroke:#000000;stroke-linecap:square;"/>
   </g>
   <g id="line2d_11">
    <path clip-path="url(#p7a8f69b32a)" d="M 242.942378 64.965154 
L 242.189032 65.596511 
L 241.429197 66.233307 
L 240.662931 66.875491 
" style="fill:none;stroke:#000000;stroke-linecap:square;"/>
   </g>
   <g id="line2d_12">
    <path clip-path="url(#p7a8f69b32a)" d="M 254.160638 80.966837 
L 253.308968 81.457946 
L 252.449962 81.953284 
L 251.583687 82.452815 
" style="fill:none;stroke:#000000;stroke-linecap:square;"/>
   </g>
   <g id="line2d_13">
    <path clip-path="url(#p7a8f69b32a)" d="M 262.426392 98.671059 
L 261.502275 99.006997 
L 260.570199 99.345829 
L 259.630236 99.687528 
" style="fill:none;stroke:#000000;stroke-linecap:square;"/>
   </g>
   <g id="line2d_14">
    <path clip-path="url(#p7a8f69b32a)" d="M 267.488488 117.539887 
L 266.520004 117.710447 
L 265.543179 117.882476 
L 264.558087 118.055961 
" style="fill:none;stroke:#000000;stroke-linecap:square;"/>
   </g>
   <g id="line2d_15">
    <path clip-path="url(#p7a8f69b32a)" d="M 269.193118 137 
L 268.209694 137 
L 267.2178 137 
L 266.217512 137 
" style="fill:none;stroke:#000000;stroke-linecap:square;"/>
   </g>
   <g id="line2d_16">
    <path clip-path="url(#p7a8f69b32a)" d="M 267.488488 156.460113 
L 266.520004 156.289553 
L 265.543179 156.117524 
L 264.558087 155.944039 
" style="fill:none;stroke:#000000;stroke-linecap:square;"/>
   </g>
   <g id="line2d_17">
    <path clip-path="url(#p7a8f69b32a)" d="M 262.426392 175.328941 
L 261.502275 174.993003 
L 260.570199 174.654171 
L 259.630236 174.312472 
" style="fill:none;stroke:#000000;stroke-linecap:square;"/>
   </g>
   <g id="line2d_18">
    <path clip-path="url(#p7a8f69b32a)" d="M 254.160638 193.033163 
L 253.308968 192.542054 
L 252.449962 192.046716 
L 251.583687 191.547185 
" style="fill:none;stroke:#000000;stroke-linecap:square;"/>
   </g>
   <g id="line2d_19">
    <path clip-path="url(#p7a8f69b32a)" d="M 242.942378 209.034846 
L 242.189032 208.403489 
L 241.429197 207.766693 
L 240.662931 207.124509 
" style="fill:none;stroke:#000000;stroke-linecap:square;"/>
   </g>
   <g id="line2d_20">
    <path clip-path="url(#p7a8f69b32a)" d="M 229.112474 222.847787 
L 228.480341 222.095364 
L 227.842763 221.336461 
L 227.19979 220.571136 
" style="fill:none;stroke:#000000;stroke-linecap:square;"/>
   </g>
   <g id="line2d_21">
    <path clip-path="url(#p7a8f69b32a)" d="M 213.091138 234.052286 
L 212.599426 233.20166 
L 212.103479 232.343708 
L 211.603335 231.478496 
" style="fill:none;stroke:#000000;stroke-linecap:square;"/>
   </g>
   <g id="line2d_22">
    <path clip-path="url(#p7a8f69b32a)" d="M 195.365173 242.3079 
L 195.028822 241.384917 
L 194.689574 240.453985 
L 194.347455 239.515174 
" style="fill:none;stroke:#000000;stroke-linecap:square;"/>
   </g>
   <g id="line2d_23">
    <path clip-path="url(#p7a8f69b32a)" d="M 176.473171 247.363787 
L 176.302402 246.396491 
L 176.130161 245.420865 
L 175.956463 244.436981 
" style="fill:none;stroke:#000000;stroke-linecap:square;"/>
   </g>
   <g id="line2d_24">
    <path clip-path="url(#p7a8f69b32a)" d="M 156.989158 249.066327 
L 156.989158 248.084109 
L 156.989158 247.093431 
L 156.989158 246.09437 
" style="fill:none;stroke:#000000;stroke-linecap:square;"/>
   </g>
   <g id="line2d_25">
    <path clip-path="url(#p7a8f69b32a)" d="M 137.505145 247.363787 
L 137.675915 246.396491 
L 137.848155 245.420865 
L 138.021854 244.436981 
" style="fill:none;stroke:#000000;stroke-linecap:square;"/>
   </g>
   <g id="line2d_26">
    <path clip-path="url(#p7a8f69b32a)" d="M 118.613144 242.3079 
L 118.949495 241.384917 
L 119.288742 240.453985 
L 119.630861 239.515174 
" style="fill:none;stroke:#000000;stroke-linecap:square;"/>
   </g>
   <g id="line2d_27">
    <path clip-path="url(#p7a8f69b32a)" d="M 100.887178 234.052286 
L 101.37889 233.20166 
L 101.874837 232.343708 
L 102.374981 231.478496 
" style="fill:none;stroke:#000000;stroke-linecap:square;"/>
   </g>
   <g id="line2d_28">
    <path clip-path="url(#p7a8f69b32a)" d="M 84.865843 222.847787 
L 85.497976 222.095364 
L 86.135553 221.336461 
L 86.778526 220.571136 
" style="fill:none;stroke:#000000;stroke-linecap:square;"/>
   </g>
   <g id="line2d_29">
    <path clip-path="url(#p7a8f69b32a)" d="M 71.035938 209.034846 
L 71.789285 208.403489 
L 72.54912 207.766693 
L 73.315385 207.124509 
" style="fill:none;stroke:#000000;stroke-linecap:square;"/>
   </g>
   <g id="line2d_30">
    <path clip-path="url(#p7a8f69b32a)" d="M 59.817678 193.033163 
L 60.669349 192.542054 
L 61.528354 192.046716 
L 62.394629 191.547185 
" style="fill:none;stroke:#000000;stroke-linecap:square;"/>
   </g>
   <g id="line2d_31">
    <path clip-path="url(#p7a8f69b32a)" d="M 51.551925 175.328941 
L 52.476041 174.993003 
L 53.408117 174.654171 
L 54.34808 174.312472 
" style="fill:none;stroke:#000000;stroke-linecap:square;"/>
   </g>
   <g id="line2d_32">
    <path clip-path="url(#p7a8f69b32a)" d="M 46.489828 156.460113 
L 47.458312 156.289553 
L 48.435137 156.117524 
L 49.420229 155.944039 
" style="fill:none;stroke:#000000;stroke-linecap:square;"/>
   </g>
   <g id="line2d_33">
    <path clip-path="url(#p7a8f69b32a)" d="M 44.785198 137 
L 45.768622 137 
L 46.760516 137 
L 47.760805 137 
" style="fill:none;stroke:#000000;stroke-linecap:square;"/>
   </g>
   <g id="line2d_34">
    <path clip-path="url(#p7a8f69b32a)" d="M 46.489828 117.539887 
L 47.458312 117.710447 
L 48.435137 117.882476 
L 49.420229 118.055961 
" style="fill:none;stroke:#000000;stroke-linecap:square;"/>
   </g>
   <g id="line2d_35">
    <path clip-path="url(#p7a8f69b32a)" d="M 51.551925 98.671059 
L 52.476041 99.006997 
L 53.408117 99.345829 
L 54.34808 99.687528 
" style="fill:none;stroke:#000000;stroke-linecap:square;"/>
   </g>
   <g id="line2d_36">
    <path clip-path="url(#p7a8f69b32a)" d="M 59.817678 80.966837 
L 60.669349 81.457946 
L 61.528354 81.953284 
L 62.394629 82.452815 
" style="fill:none;stroke:#000000;stroke-linecap:square;"/>
   </g>
   <g id="line2d_37">
    <path clip-path="url(#p7a8f69b32a)" d="M 71.035938 64.965154 
L 71.789285 65.596511 
L 72.54912 66.233307 
L 73.315385 66.875491 
" style="fill:none;stroke:#000000;stroke-linecap:square;"/>
   </g>
   <g id="line2d_38">
    <path clip-path="url(#p7a8f69b32a)" d="M 84.865843 51.152213 
L 85.497976 51.904636 
L 86.135553 52.663539 
L 86.778526 53.428864 
" style="fill:none;stroke:#000000;stroke-linecap:square;"/>
   </g>
   <g id="line2d_39">
    <path clip-path="url(#p7a8f69b32a)" d="M 100.887178 39.947714 
L 101.37889 40.79834 
L 101.874837 41.656292 
L 102.374981 42.521504 
" style="fill:none;stroke:#000000;stroke-linecap:square;"/>
   </g>
   <g id="line2d_40">
    <path clip-path="url(#p7a8f69b32a)" d="M 118.613144 31.6921 
L 118.949495 32.615083 
L 119.288742 33.546015 
L 119.630861 34.484826 
" style="fill:none;stroke:#000000;stroke-linecap:square;"/>
   </g>
   <g id="line2d_41">
    <path clip-path="url(#p7a8f69b32a)" d="M 137.505145 26.636213 
L 137.675915 27.603509 
L 137.848155 28.579135 
L 138.021854 29.563019 
" style="fill:none;stroke:#000000;stroke-linecap:square;"/>
   </g>
   <g id="legend_1">
    <g id="patch_2">
     <path d="M 18.554158 55.6275 
L 295.424158 55.6275 
L 295.424158 16.8 
L 18.554158 16.8 
z
" style="fill:#ffffff;stroke:#000000;stroke-linejoin:miter;"/>
    </g>
    <g id="PathCollection_3">
     <path d="M 26.954158 29.804193 
C 27.54717 29.804193 28.115974 29.568587 28.535297 29.149264 
C 28.95462 28.729941 29.190226 28.161137 29.190226 27.568125 
C 29.190226 26.975113 28.95462 26.406309 28.535297 25.986986 
C 28.115974 25.567663 27.54717 25.332057 26.954158 25.332057 
C 26.361146 25.332057 25.792342 25.567663 25.373019 25.986986 
C 24.953696 26.406309 24.71809 26.975113 24.71809 27.568125 
C 24.71809 28.161137 24.953696 28.729941 25.373019 29.149264 
C 25.792342 29.568587 26.361146 29.804193 26.954158 29.804193 
z
" style="fill:none;stroke:#ff0000;"/>
     <path d="M 35.354158 28.754193 
C 35.94717 28.754193 36.515974 28.518587 36.935297 28.099264 
C 37.35462 27.679941 37.590226 27.111137 37.590226 26.518125 
C 37.590226 25.925113 37.35462 25.356309 36.935297 24.936986 
C 36.515974 24.517663 35.94717 24.282057 35.354158 24.282057 
C 34.761146 24.282057 34.192342 24.517663 33.773019 24.936986 
C 33.353696 25.356309 33.11809 25.925113 33.11809 26.518125 
C 33.11809 27.111137 33.353696 27.679941 33.773019 28.099264 
C 34.192342 28.518587 34.761146 28.754193 35.354158 28.754193 
z
" style="fill:none;stroke:#ff0000;"/>
     <path d="M 43.754158 30.329193 
C 44.34717 30.329193 44.915974 30.093587 45.335297 29.674264 
C 45.75462 29.254941 45.990226 28.686137 45.990226 28.093125 
C 45.990226 27.500113 45.75462 26.931309 45.335297 26.511986 
C 44.915974 26.092663 44.34717 25.857057 43.754158 25.857057 
C 43.161146 25.857057 42.592342 26.092663 42.173019 26.511986 
C 41.753696 26.931309 41.51809 27.500113 41.51809 28.093125 
C 41.51809 28.686137 41.753696 29.254941 42.173019 29.674264 
C 42.592342 30.093587 43.161146 30.329193 43.754158 30.329193 
z
" style="fill:none;stroke:#ff0000;"/>
    </g>
    <g id="text_1">
     <!-- Halls (1974) site means (in situ) -->
     <defs>
      <path id="BitstreamVeraSans-Roman-20"/>
      <path d="M 12.40625 8.296875 
L 28.515625 8.296875 
L 28.515625 63.921875 
L 10.984375 60.40625 
L 10.984375 69.390625 
L 28.421875 72.90625 
L 38.28125 72.90625 
L 38.28125 8.296875 
L 54.390625 8.296875 
L 54.390625 0 
L 12.40625 0 
z
" id="BitstreamVeraSans-Roman-31"/>
      <path d="M 8.203125 72.90625 
L 55.078125 72.90625 
L 55.078125 68.703125 
L 28.609375 0 
L 18.3125 0 
L 43.21875 64.59375 
L 8.203125 64.59375 
z
" id="BitstreamVeraSans-Roman-37"/>
      <path d="M 37.796875 64.3125 
L 12.890625 25.390625 
L 37.796875 25.390625 
z
M 35.203125 72.90625 
L 47.609375 72.90625 
L 47.609375 25.390625 
L 58.015625 25.390625 
L 58.015625 17.1875 
L 47.609375 17.1875 
L 47.609375 0 
L 37.796875 0 
L 37.796875 17.1875 
L 4.890625 17.1875 
L 4.890625 26.703125 
z
" id="BitstreamVeraSans-Roman-34"/>
      <path d="M 8.015625 75.875 
L 15.828125 75.875 
Q 23.140625 64.359375 26.78125 53.3125 
Q 30.421875 42.28125 30.421875 31.390625 
Q 30.421875 20.453125 26.78125 9.375 
Q 23.140625 -1.703125 15.828125 -13.1875 
L 8.015625 -13.1875 
Q 14.5 -2 17.703125 9.0625 
Q 20.90625 20.125 20.90625 31.390625 
Q 20.90625 42.671875 17.703125 53.65625 
Q 14.5 64.65625 8.015625 75.875 
" id="BitstreamVeraSans-Roman-29"/>
      <path d="M 31 75.875 
Q 24.46875 64.65625 21.28125 53.65625 
Q 18.109375 42.671875 18.109375 31.390625 
Q 18.109375 20.125 21.3125 9.0625 
Q 24.515625 -2 31 -13.1875 
L 23.1875 -13.1875 
Q 15.875 -1.703125 12.234375 9.375 
Q 8.59375 20.453125 8.59375 31.390625 
Q 8.59375 42.28125 12.203125 53.3125 
Q 15.828125 64.359375 23.1875 75.875 
z
" id="BitstreamVeraSans-Roman-28"/>
      <path d="M 10.984375 1.515625 
L 10.984375 10.5 
Q 14.703125 8.734375 18.5 7.8125 
Q 22.3125 6.890625 25.984375 6.890625 
Q 35.75 6.890625 40.890625 13.453125 
Q 46.046875 20.015625 46.78125 33.40625 
Q 43.953125 29.203125 39.59375 26.953125 
Q 35.25 24.703125 29.984375 24.703125 
Q 19.046875 24.703125 12.671875 31.3125 
Q 6.296875 37.9375 6.296875 49.421875 
Q 6.296875 60.640625 12.9375 67.421875 
Q 19.578125 74.21875 30.609375 74.21875 
Q 43.265625 74.21875 49.921875 64.515625 
Q 56.59375 54.828125 56.59375 36.375 
Q 56.59375 19.140625 48.40625 8.859375 
Q 40.234375 -1.421875 26.421875 -1.421875 
Q 22.703125 -1.421875 18.890625 -0.6875 
Q 15.09375 0.046875 10.984375 1.515625 
M 30.609375 32.421875 
Q 37.25 32.421875 41.125 36.953125 
Q 45.015625 41.5 45.015625 49.421875 
Q 45.015625 57.28125 41.125 61.84375 
Q 37.25 66.40625 30.609375 66.40625 
Q 23.96875 66.40625 20.09375 61.84375 
Q 16.21875 57.28125 16.21875 49.421875 
Q 16.21875 41.5 20.09375 36.953125 
Q 23.96875 32.421875 30.609375 32.421875 
" id="BitstreamVeraSans-Roman-39"/>
      <path d="M 9.421875 75.984375 
L 18.40625 75.984375 
L 18.40625 0 
L 9.421875 0 
z
" id="BitstreamVeraSans-Roman-6c"/>
      <path d="M 54.890625 33.015625 
L 54.890625 0 
L 45.90625 0 
L 45.90625 32.71875 
Q 45.90625 40.484375 42.875 44.328125 
Q 39.84375 48.1875 33.796875 48.1875 
Q 26.515625 48.1875 22.3125 43.546875 
Q 18.109375 38.921875 18.109375 30.90625 
L 18.109375 0 
L 9.078125 0 
L 9.078125 54.6875 
L 18.109375 54.6875 
L 18.109375 46.1875 
Q 21.34375 51.125 25.703125 53.5625 
Q 30.078125 56 35.796875 56 
Q 45.21875 56 50.046875 50.171875 
Q 54.890625 44.34375 54.890625 33.015625 
" id="BitstreamVeraSans-Roman-6e"/>
      <path d="M 9.421875 54.6875 
L 18.40625 54.6875 
L 18.40625 0 
L 9.421875 0 
z
M 9.421875 75.984375 
L 18.40625 75.984375 
L 18.40625 64.59375 
L 9.421875 64.59375 
z
" id="BitstreamVeraSans-Roman-69"/>
      <path d="M 52 44.1875 
Q 55.375 50.25 60.0625 53.125 
Q 64.75 56 71.09375 56 
Q 79.640625 56 84.28125 50.015625 
Q 88.921875 44.046875 88.921875 33.015625 
L 88.921875 0 
L 79.890625 0 
L 79.890625 32.71875 
Q 79.890625 40.578125 77.09375 44.375 
Q 74.3125 48.1875 68.609375 48.1875 
Q 61.625 48.1875 57.5625 43.546875 
Q 53.515625 38.921875 53.515625 30.90625 
L 53.515625 0 
L 44.484375 0 
L 44.484375 32.71875 
Q 44.484375 40.625 41.703125 44.40625 
Q 38.921875 48.1875 33.109375 48.1875 
Q 26.21875 48.1875 22.15625 43.53125 
Q 18.109375 38.875 18.109375 30.90625 
L 18.109375 0 
L 9.078125 0 
L 9.078125 54.6875 
L 18.109375 54.6875 
L 18.109375 46.1875 
Q 21.1875 51.21875 25.484375 53.609375 
Q 29.78125 56 35.6875 56 
Q 41.65625 56 45.828125 52.96875 
Q 50 49.953125 52 44.1875 
" id="BitstreamVeraSans-Roman-6d"/>
      <path d="M 56.203125 29.59375 
L 56.203125 25.203125 
L 14.890625 25.203125 
Q 15.484375 15.921875 20.484375 11.0625 
Q 25.484375 6.203125 34.421875 6.203125 
Q 39.59375 6.203125 44.453125 7.46875 
Q 49.3125 8.734375 54.109375 11.28125 
L 54.109375 2.78125 
Q 49.265625 0.734375 44.1875 -0.34375 
Q 39.109375 -1.421875 33.890625 -1.421875 
Q 20.796875 -1.421875 13.15625 6.1875 
Q 5.515625 13.8125 5.515625 26.8125 
Q 5.515625 40.234375 12.765625 48.109375 
Q 20.015625 56 32.328125 56 
Q 43.359375 56 49.78125 48.890625 
Q 56.203125 41.796875 56.203125 29.59375 
M 47.21875 32.234375 
Q 47.125 39.59375 43.09375 43.984375 
Q 39.0625 48.390625 32.421875 48.390625 
Q 24.90625 48.390625 20.390625 44.140625 
Q 15.875 39.890625 15.1875 32.171875 
z
" id="BitstreamVeraSans-Roman-65"/>
      <path d="M 18.3125 70.21875 
L 18.3125 54.6875 
L 36.8125 54.6875 
L 36.8125 47.703125 
L 18.3125 47.703125 
L 18.3125 18.015625 
Q 18.3125 11.328125 20.140625 9.421875 
Q 21.96875 7.515625 27.59375 7.515625 
L 36.8125 7.515625 
L 36.8125 0 
L 27.59375 0 
Q 17.1875 0 13.234375 3.875 
Q 9.28125 7.765625 9.28125 18.015625 
L 9.28125 47.703125 
L 2.6875 47.703125 
L 2.6875 54.6875 
L 9.28125 54.6875 
L 9.28125 70.21875 
z
" id="BitstreamVeraSans-Roman-74"/>
      <path d="M 8.5 21.578125 
L 8.5 54.6875 
L 17.484375 54.6875 
L 17.484375 21.921875 
Q 17.484375 14.15625 20.5 10.265625 
Q 23.53125 6.390625 29.59375 6.390625 
Q 36.859375 6.390625 41.078125 11.03125 
Q 45.3125 15.671875 45.3125 23.6875 
L 45.3125 54.6875 
L 54.296875 54.6875 
L 54.296875 0 
L 45.3125 0 
L 45.3125 8.40625 
Q 42.046875 3.421875 37.71875 1 
Q 33.40625 -1.421875 27.6875 -1.421875 
Q 18.265625 -1.421875 13.375 4.4375 
Q 8.5 10.296875 8.5 21.578125 
" id="BitstreamVeraSans-Roman-75"/>
      <path d="M 34.28125 27.484375 
Q 23.390625 27.484375 19.1875 25 
Q 14.984375 22.515625 14.984375 16.5 
Q 14.984375 11.71875 18.140625 8.90625 
Q 21.296875 6.109375 26.703125 6.109375 
Q 34.1875 6.109375 38.703125 11.40625 
Q 43.21875 16.703125 43.21875 25.484375 
L 43.21875 27.484375 
z
M 52.203125 31.203125 
L 52.203125 0 
L 43.21875 0 
L 43.21875 8.296875 
Q 40.140625 3.328125 35.546875 0.953125 
Q 30.953125 -1.421875 24.3125 -1.421875 
Q 15.921875 -1.421875 10.953125 3.296875 
Q 6 8.015625 6 15.921875 
Q 6 25.140625 12.171875 29.828125 
Q 18.359375 34.515625 30.609375 34.515625 
L 43.21875 34.515625 
L 43.21875 35.40625 
Q 43.21875 41.609375 39.140625 45 
Q 35.0625 48.390625 27.6875 48.390625 
Q 23 48.390625 18.546875 47.265625 
Q 14.109375 46.140625 10.015625 43.890625 
L 10.015625 52.203125 
Q 14.9375 54.109375 19.578125 55.046875 
Q 24.21875 56 28.609375 56 
Q 40.484375 56 46.34375 49.84375 
Q 52.203125 43.703125 52.203125 31.203125 
" id="BitstreamVeraSans-Roman-61"/>
      <path d="M 44.28125 53.078125 
L 44.28125 44.578125 
Q 40.484375 46.53125 36.375 47.5 
Q 32.28125 48.484375 27.875 48.484375 
Q 21.1875 48.484375 17.84375 46.4375 
Q 14.5 44.390625 14.5 40.28125 
Q 14.5 37.15625 16.890625 35.375 
Q 19.28125 33.59375 26.515625 31.984375 
L 29.59375 31.296875 
Q 39.15625 29.25 43.1875 25.515625 
Q 47.21875 21.78125 47.21875 15.09375 
Q 47.21875 7.46875 41.1875 3.015625 
Q 35.15625 -1.421875 24.609375 -1.421875 
Q 20.21875 -1.421875 15.453125 -0.5625 
Q 10.6875 0.296875 5.421875 2 
L 5.421875 11.28125 
Q 10.40625 8.6875 15.234375 7.390625 
Q 20.0625 6.109375 24.8125 6.109375 
Q 31.15625 6.109375 34.5625 8.28125 
Q 37.984375 10.453125 37.984375 14.40625 
Q 37.984375 18.0625 35.515625 20.015625 
Q 33.0625 21.96875 24.703125 23.78125 
L 21.578125 24.515625 
Q 13.234375 26.265625 9.515625 29.90625 
Q 5.8125 33.546875 5.8125 39.890625 
Q 5.8125 47.609375 11.28125 51.796875 
Q 16.75 56 26.8125 56 
Q 31.78125 56 36.171875 55.265625 
Q 40.578125 54.546875 44.28125 53.078125 
" id="BitstreamVeraSans-Roman-73"/>
      <path d="M 9.8125 72.90625 
L 19.671875 72.90625 
L 19.671875 43.015625 
L 55.515625 43.015625 
L 55.515625 72.90625 
L 65.375 72.90625 
L 65.375 0 
L 55.515625 0 
L 55.515625 34.71875 
L 19.671875 34.71875 
L 19.671875 0 
L 9.8125 0 
z
" id="BitstreamVeraSans-Roman-48"/>
     </defs>
     <g transform="translate(56.9541581633 30.718125)scale(0.12 -0.12)">
      <use xlink:href="#BitstreamVeraSans-Roman-48"/>
      <use x="75.1953125" xlink:href="#BitstreamVeraSans-Roman-61"/>
      <use x="136.474609375" xlink:href="#BitstreamVeraSans-Roman-6c"/>
      <use x="164.2578125" xlink:href="#BitstreamVeraSans-Roman-6c"/>
      <use x="192.041015625" xlink:href="#BitstreamVeraSans-Roman-73"/>
      <use x="244.140625" xlink:href="#BitstreamVeraSans-Roman-20"/>
      <use x="275.927734375" xlink:href="#BitstreamVeraSans-Roman-28"/>
      <use x="314.94140625" xlink:href="#BitstreamVeraSans-Roman-31"/>
      <use x="378.564453125" xlink:href="#BitstreamVeraSans-Roman-39"/>
      <use x="442.1875" xlink:href="#BitstreamVeraSans-Roman-37"/>
      <use x="505.810546875" xlink:href="#BitstreamVeraSans-Roman-34"/>
      <use x="569.43359375" xlink:href="#BitstreamVeraSans-Roman-29"/>
      <use x="608.447265625" xlink:href="#BitstreamVeraSans-Roman-20"/>
      <use x="640.234375" xlink:href="#BitstreamVeraSans-Roman-73"/>
      <use x="692.333984375" xlink:href="#BitstreamVeraSans-Roman-69"/>
      <use x="720.1171875" xlink:href="#BitstreamVeraSans-Roman-74"/>
      <use x="759.326171875" xlink:href="#BitstreamVeraSans-Roman-65"/>
      <use x="820.849609375" xlink:href="#BitstreamVeraSans-Roman-20"/>
      <use x="852.63671875" xlink:href="#BitstreamVeraSans-Roman-6d"/>
      <use x="950.048828125" xlink:href="#BitstreamVeraSans-Roman-65"/>
      <use x="1011.57226562" xlink:href="#BitstreamVeraSans-Roman-61"/>
      <use x="1072.8515625" xlink:href="#BitstreamVeraSans-Roman-6e"/>
      <use x="1136.23046875" xlink:href="#BitstreamVeraSans-Roman-73"/>
      <use x="1188.33007812" xlink:href="#BitstreamVeraSans-Roman-20"/>
      <use x="1220.1171875" xlink:href="#BitstreamVeraSans-Roman-28"/>
      <use x="1259.13085938" xlink:href="#BitstreamVeraSans-Roman-69"/>
      <use x="1286.9140625" xlink:href="#BitstreamVeraSans-Roman-6e"/>
      <use x="1350.29296875" xlink:href="#BitstreamVeraSans-Roman-20"/>
      <use x="1382.08007812" xlink:href="#BitstreamVeraSans-Roman-73"/>
      <use x="1434.1796875" xlink:href="#BitstreamVeraSans-Roman-69"/>
      <use x="1461.96289062" xlink:href="#BitstreamVeraSans-Roman-74"/>
      <use x="1501.171875" xlink:href="#BitstreamVeraSans-Roman-75"/>
      <use x="1564.55078125" xlink:href="#BitstreamVeraSans-Roman-29"/>
     </g>
    </g>
    <g id="PathCollection_4">
     <path d="M 26.954158 47.417943 
C 27.54717 47.417943 28.115974 47.182337 28.535297 46.763014 
C 28.95462 46.343691 29.190226 45.774887 29.190226 45.181875 
C 29.190226 44.588863 28.95462 44.020059 28.535297 43.600736 
C 28.115974 43.181413 27.54717 42.945807 26.954158 42.945807 
C 26.361146 42.945807 25.792342 43.181413 25.373019 43.600736 
C 24.953696 44.020059 24.71809 44.588863 24.71809 45.181875 
C 24.71809 45.774887 24.953696 46.343691 25.373019 46.763014 
C 25.792342 47.182337 26.361146 47.417943 26.954158 47.417943 
z
" style="fill:none;stroke:#0000ff;"/>
     <path d="M 35.354158 46.367943 
C 35.94717 46.367943 36.515974 46.132337 36.935297 45.713014 
C 37.35462 45.293691 37.590226 44.724887 37.590226 44.131875 
C 37.590226 43.538863 37.35462 42.970059 36.935297 42.550736 
C 36.515974 42.131413 35.94717 41.895807 35.354158 41.895807 
C 34.761146 41.895807 34.192342 42.131413 33.773019 42.550736 
C 33.353696 42.970059 33.11809 43.538863 33.11809 44.131875 
C 33.11809 44.724887 33.353696 45.293691 33.773019 45.713014 
C 34.192342 46.132337 34.761146 46.367943 35.354158 46.367943 
z
" style="fill:none;stroke:#0000ff;"/>
     <path d="M 43.754158 47.942943 
C 44.34717 47.942943 44.915974 47.707337 45.335297 47.288014 
C 45.75462 46.868691 45.990226 46.299887 45.990226 45.706875 
C 45.990226 45.113863 45.75462 44.545059 45.335297 44.125736 
C 44.915974 43.706413 44.34717 43.470807 43.754158 43.470807 
C 43.161146 43.470807 42.592342 43.706413 42.173019 44.125736 
C 41.753696 44.545059 41.51809 45.113863 41.51809 45.706875 
C 41.51809 46.299887 41.753696 46.868691 42.173019 47.288014 
C 42.592342 47.707337 43.161146 47.942943 43.754158 47.942943 
z
" style="fill:none;stroke:#0000ff;"/>
    </g>
    <g id="text_2">
     <!-- Halls (1974) site means (tilt-corrected) -->
     <defs>
      <path d="M 45.40625 46.390625 
L 45.40625 75.984375 
L 54.390625 75.984375 
L 54.390625 0 
L 45.40625 0 
L 45.40625 8.203125 
Q 42.578125 3.328125 38.25 0.953125 
Q 33.9375 -1.421875 27.875 -1.421875 
Q 17.96875 -1.421875 11.734375 6.484375 
Q 5.515625 14.40625 5.515625 27.296875 
Q 5.515625 40.1875 11.734375 48.09375 
Q 17.96875 56 27.875 56 
Q 33.9375 56 38.25 53.625 
Q 42.578125 51.265625 45.40625 46.390625 
M 14.796875 27.296875 
Q 14.796875 17.390625 18.875 11.75 
Q 22.953125 6.109375 30.078125 6.109375 
Q 37.203125 6.109375 41.296875 11.75 
Q 45.40625 17.390625 45.40625 27.296875 
Q 45.40625 37.203125 41.296875 42.84375 
Q 37.203125 48.484375 30.078125 48.484375 
Q 22.953125 48.484375 18.875 42.84375 
Q 14.796875 37.203125 14.796875 27.296875 
" id="BitstreamVeraSans-Roman-64"/>
      <path d="M 30.609375 48.390625 
Q 23.390625 48.390625 19.1875 42.75 
Q 14.984375 37.109375 14.984375 27.296875 
Q 14.984375 17.484375 19.15625 11.84375 
Q 23.34375 6.203125 30.609375 6.203125 
Q 37.796875 6.203125 41.984375 11.859375 
Q 46.1875 17.53125 46.1875 27.296875 
Q 46.1875 37.015625 41.984375 42.703125 
Q 37.796875 48.390625 30.609375 48.390625 
M 30.609375 56 
Q 42.328125 56 49.015625 48.375 
Q 55.71875 40.765625 55.71875 27.296875 
Q 55.71875 13.875 49.015625 6.21875 
Q 42.328125 -1.421875 30.609375 -1.421875 
Q 18.84375 -1.421875 12.171875 6.21875 
Q 5.515625 13.875 5.515625 27.296875 
Q 5.515625 40.765625 12.171875 48.375 
Q 18.84375 56 30.609375 56 
" id="BitstreamVeraSans-Roman-6f"/>
      <path d="M 41.109375 46.296875 
Q 39.59375 47.171875 37.8125 47.578125 
Q 36.03125 48 33.890625 48 
Q 26.265625 48 22.1875 43.046875 
Q 18.109375 38.09375 18.109375 28.8125 
L 18.109375 0 
L 9.078125 0 
L 9.078125 54.6875 
L 18.109375 54.6875 
L 18.109375 46.1875 
Q 20.953125 51.171875 25.484375 53.578125 
Q 30.03125 56 36.53125 56 
Q 37.453125 56 38.578125 55.875 
Q 39.703125 55.765625 41.0625 55.515625 
z
" id="BitstreamVeraSans-Roman-72"/>
      <path d="M 4.890625 31.390625 
L 31.203125 31.390625 
L 31.203125 23.390625 
L 4.890625 23.390625 
z
" id="BitstreamVeraSans-Roman-2d"/>
      <path d="M 48.78125 52.59375 
L 48.78125 44.1875 
Q 44.96875 46.296875 41.140625 47.34375 
Q 37.3125 48.390625 33.40625 48.390625 
Q 24.65625 48.390625 19.8125 42.84375 
Q 14.984375 37.3125 14.984375 27.296875 
Q 14.984375 17.28125 19.8125 11.734375 
Q 24.65625 6.203125 33.40625 6.203125 
Q 37.3125 6.203125 41.140625 7.25 
Q 44.96875 8.296875 48.78125 10.40625 
L 48.78125 2.09375 
Q 45.015625 0.34375 40.984375 -0.53125 
Q 36.96875 -1.421875 32.421875 -1.421875 
Q 20.0625 -1.421875 12.78125 6.34375 
Q 5.515625 14.109375 5.515625 27.296875 
Q 5.515625 40.671875 12.859375 48.328125 
Q 20.21875 56 33.015625 56 
Q 37.15625 56 41.109375 55.140625 
Q 45.0625 54.296875 48.78125 52.59375 
" id="BitstreamVeraSans-Roman-63"/>
     </defs>
     <g transform="translate(56.9541581633 48.331875)scale(0.12 -0.12)">
      <use xlink:href="#BitstreamVeraSans-Roman-48"/>
      <use x="75.1953125" xlink:href="#BitstreamVeraSans-Roman-61"/>
      <use x="136.474609375" xlink:href="#BitstreamVeraSans-Roman-6c"/>
      <use x="164.2578125" xlink:href="#BitstreamVeraSans-Roman-6c"/>
      <use x="192.041015625" xlink:href="#BitstreamVeraSans-Roman-73"/>
      <use x="244.140625" xlink:href="#BitstreamVeraSans-Roman-20"/>
      <use x="275.927734375" xlink:href="#BitstreamVeraSans-Roman-28"/>
      <use x="314.94140625" xlink:href="#BitstreamVeraSans-Roman-31"/>
      <use x="378.564453125" xlink:href="#BitstreamVeraSans-Roman-39"/>
      <use x="442.1875" xlink:href="#BitstreamVeraSans-Roman-37"/>
      <use x="505.810546875" xlink:href="#BitstreamVeraSans-Roman-34"/>
      <use x="569.43359375" xlink:href="#BitstreamVeraSans-Roman-29"/>
      <use x="608.447265625" xlink:href="#BitstreamVeraSans-Roman-20"/>
      <use x="640.234375" xlink:href="#BitstreamVeraSans-Roman-73"/>
      <use x="692.333984375" xlink:href="#BitstreamVeraSans-Roman-69"/>
      <use x="720.1171875" xlink:href="#BitstreamVeraSans-Roman-74"/>
      <use x="759.326171875" xlink:href="#BitstreamVeraSans-Roman-65"/>
      <use x="820.849609375" xlink:href="#BitstreamVeraSans-Roman-20"/>
      <use x="852.63671875" xlink:href="#BitstreamVeraSans-Roman-6d"/>
      <use x="950.048828125" xlink:href="#BitstreamVeraSans-Roman-65"/>
      <use x="1011.57226562" xlink:href="#BitstreamVeraSans-Roman-61"/>
      <use x="1072.8515625" xlink:href="#BitstreamVeraSans-Roman-6e"/>
      <use x="1136.23046875" xlink:href="#BitstreamVeraSans-Roman-73"/>
      <use x="1188.33007812" xlink:href="#BitstreamVeraSans-Roman-20"/>
      <use x="1220.1171875" xlink:href="#BitstreamVeraSans-Roman-28"/>
      <use x="1259.13085938" xlink:href="#BitstreamVeraSans-Roman-74"/>
      <use x="1298.33984375" xlink:href="#BitstreamVeraSans-Roman-69"/>
      <use x="1326.12304688" xlink:href="#BitstreamVeraSans-Roman-6c"/>
      <use x="1353.90625" xlink:href="#BitstreamVeraSans-Roman-74"/>
      <use x="1393.11523438" xlink:href="#BitstreamVeraSans-Roman-2d"/>
      <use x="1429.19921875" xlink:href="#BitstreamVeraSans-Roman-63"/>
      <use x="1484.1796875" xlink:href="#BitstreamVeraSans-Roman-6f"/>
      <use x="1545.36132812" xlink:href="#BitstreamVeraSans-Roman-72"/>
      <use x="1586.45898438" xlink:href="#BitstreamVeraSans-Roman-72"/>
      <use x="1627.54101562" xlink:href="#BitstreamVeraSans-Roman-65"/>
      <use x="1689.06445312" xlink:href="#BitstreamVeraSans-Roman-63"/>
      <use x="1744.04492188" xlink:href="#BitstreamVeraSans-Roman-74"/>
      <use x="1783.25390625" xlink:href="#BitstreamVeraSans-Roman-65"/>
      <use x="1844.77734375" xlink:href="#BitstreamVeraSans-Roman-64"/>
      <use x="1908.25390625" xlink:href="#BitstreamVeraSans-Roman-29"/>
     </g>
    </g>
   </g>
  </g>
 </g>
 <defs>
  <clipPath id="p7a8f69b32a">
   <rect height="252.4" width="235.628316327" x="39.175" y="10.8"/>
  </clipPath>
 </defs>
</svg>
